<svg xmlns="http://www.w3.org/2000/svg" version="1.1" xmlns:xlink="http://www.w3.org/1999/xlink" xmlns:svgjs="http://svgjs.com/svgjs" width="1440" height="250" preserveAspectRatio="none" viewBox="0 0 1440 250"><g mask="url(&quot;#SvgjsMask1006&quot;)" fill="none"><rect width="1440" height="250" x="0" y="0" fill="#0e2a47"></rect><path d="M25 250L275 0L432.5 0L182.5 250z" fill="url(#SvgjsLinearGradient1007)"></path><path d="M267.6 250L517.6 0L726.1 0L476.1 250z" fill="url(#SvgjsLinearGradient1007)"></path><path d="M490.20000000000005 250L740.2 0L899.2 0L649.2 250z" fill="url(#SvgjsLinearGradient1007)"></path><path d="M713.8000000000001 250L963.8000000000001 0L1265.3000000000002 0L1015.3000000000001 250z" fill="url(#SvgjsLinearGradient1007)"></path><path d="M1393 250L1143 0L906 0L1156 250z" fill="url(#SvgjsLinearGradient1008)"></path><path d="M1198.4 250L948.4000000000001 0L693.4000000000001 0L943.4000000000001 250z" fill="url(#SvgjsLinearGradient1008)"></path><path d="M921.8 250L671.8 0L443.79999999999995 0L693.8 250z" fill="url(#SvgjsLinearGradient1008)"></path><path d="M697.1999999999999 250L447.19999999999993 0L120.19999999999993 0L370.19999999999993 250z" fill="url(#SvgjsLinearGradient1008)"></path><path d="M1306.5753253568962 250L1440 116.57532535689614L1440 250z" fill="url(#SvgjsLinearGradient1007)"></path><path d="M0 250L133.42467464310386 250L 0 116.57532535689614z" fill="url(#SvgjsLinearGradient1008)"></path></g><defs><mask id="SvgjsMask1006"><rect width="1440" height="250" fill="#ffffff"></rect></mask><linearGradient x1="0%" y1="100%" x2="100%" y2="0%" id="SvgjsLinearGradient1007"><stop stop-color="rgba(15, 70, 185, 0.2)" offset="0"></stop><stop stop-opacity="0" stop-color="rgba(15, 70, 185, 0.2)" offset="0.66"></stop></linearGradient><linearGradient x1="100%" y1="100%" x2="0%" y2="0%" id="SvgjsLinearGradient1008"><stop stop-color="rgba(15, 70, 185, 0.2)" offset="0"></stop><stop stop-opacity="0" stop-color="rgba(15, 70, 185, 0.2)" offset="0.66"></stop></linearGradient></defs></svg>